<svg xmlns="http://www.w3.org/2000/svg" width="100" height="100" fill="currentColor" viewBox="0 0 100 100">
  <g clip-path="url(#a)">
    <path fill-rule="evenodd" d="M16 0C7.163 0 0 7.163 0 16v68c0 8.837 7.163 16 16 16h68c8.837 0 16-7.163 16-16V16c0-8.837-7.163-16-16-16H16Zm-5.998 70.373h7.306L50 33.846l32.692 36.527h7.306l.027-.025L52.042 27.91 50 25.628l-2.042 2.281-37.983 42.44.027.023ZM50 62.18a3.121 3.121 0 1 0 0-6.243 3.121 3.121 0 0 0 0 6.243Z" clip-rule="evenodd"/>
  </g>
  <defs>
    <clipPath id="a">
      <path d="M0 0h100v100H0z"/>
    </clipPath>
  </defs>
  <style>
        path { fill: #000; }
        @media (prefers-color-scheme: dark) {
            path { fill: #FFF; }
        }
  </style>
</svg>
